<svg id="Martian-Black" xmlns="http://www.w3.org/2000/svg" viewBox="0 0 1107.76 357.7"><defs><style>.cls-1{fill:#e5053a;}.cls-2{fill:none;stroke:#fff;stroke-miterlimit:10;opacity:0;}</style></defs><path class="cls-1" d="M0,86.68V270H439.1V86.68Zm390.26,97.23a.51.51,0,0,1-.72.08c-31.39-25.78-50.62-2.86-84.18,37.13a.52.52,0,0,1-.85-.59L348.72,144c2-3.55,3.6-6.24,5.81-7.58a7,7,0,0,1,7.25,0c2.2,1.34,3.75,4,5.81,7.58l22.72,39.35A.5.5,0,0,1,390.26,183.91Z" transform="translate(0.5 0.5)"/><path d="M512.73,130.37a2.87,2.87,0,0,0-.94-1.47,2.78,2.78,0,0,0-1.69-.47h-8.54a2.45,2.45,0,0,0-2.62,1.94L488,166.17h8.58l2.67-9.95h13.19l2.67,9.95h8.57Zm-11.66,19,3.77-14.06h2l3.77,14.06Z" transform="translate(0.5 0.5)"/><path d="M574.44,157.25V138.72h8.24v27.45h-6.52l-.67-3.77c-5.85,3.77-18.88,8.2-18.88-5.84V138.72h8.23v17.84c0,4.81,4.8,2.75,9.6.69" transform="translate(0.5 0.5)"/><path d="M605,165.14l-1-5.83h-3.43c-.69,0-1.72,0-2.23-.69a5.17,5.17,0,0,1-.52-2.74V128.43h-2.4l-5.83,10.1v17.35c0,5.14,0,8.24,3.09,9.53s9.26.76,12.35-.27" transform="translate(0.5 0.5)"/><path d="M551,138.72h-7.55c-1.81,10.3-2.72,15.44-3.61,18s-1.74,2.58-3.47,2.58L530,138.72h-7.89l7.8,25.51a2.73,2.73,0,0,0,.94,1.47,2.77,2.77,0,0,0,1.68.47h3.77c4.3,0,7,0,9-3.43s3.19-10.29,5.61-24" transform="translate(0.5 0.5)"/><path d="M648.2,147.64v18.53H640V138.73h6.17l.73,4.11c4.12-4.11,8.38-4.11,12.65-4.11l-1.21,6.85a26,26,0,0,0-10.11,2.06" transform="translate(0.5 0.5)"/><path d="M612.52,140c-4.8,2.15-4.8,7.28-4.8,12.5s0,10.51,3.43,12.61,10.29,1,14.93-3.77l.85,4.8h6.18V140.1c-6.18-1.37-15.78-2.21-20.59-.07m12.35,14.47c-3.37,4.81-6.48,5.47-8,4.32s-1.56-4.11-1.56-7.47,0-7.15,4.8-7.15h4.8Z" transform="translate(0.5 0.5)"/><path d="M511,212a9.08,9.08,0,0,1,2.19,6.09,9.46,9.46,0,0,1-3.1,7.34q-3.09,2.81-9,2.8H488V190.55h12.92q5.65,0,8.52,2.53a8.66,8.66,0,0,1,2.85,6.81,8.54,8.54,0,0,1-2,5.89,9.32,9.32,0,0,1-5.07,2.91A9.77,9.77,0,0,1,511,212Zm-19.17-4.59h8.65q4,0,6-1.84a6.43,6.43,0,0,0,2.05-5.05,6.32,6.32,0,0,0-2-5q-2-1.81-6.24-1.81h-8.44ZM507,223a7.36,7.36,0,0,0-.06-10.84,10,10,0,0,0-6.61-2h-8.55V225h8.65A10,10,0,0,0,507,223Z" transform="translate(0.5 0.5)"/><path d="M544.69,199v29.15H541V221a10.15,10.15,0,0,1-4.06,5.77,11.75,11.75,0,0,1-6.72,2,11.12,11.12,0,0,1-8.3-3.23q-3.18-3.24-3.18-9.48V199h3.74v16.66q0,4.8,2.4,7.34a8.6,8.6,0,0,0,6.56,2.53,9,9,0,0,0,7-2.8Q541,220,541,214.51V199Z" transform="translate(0.5 0.5)"/><path d="M552.77,188.52a2.88,2.88,0,0,1,2-.7,2.75,2.75,0,0,1,2,.7,2.4,2.4,0,0,1,.75,1.86,2.36,2.36,0,0,1-.75,1.82,2.78,2.78,0,0,1-2,.69,2.92,2.92,0,0,1-2-.69,2.34,2.34,0,0,1-.77-1.82A2.38,2.38,0,0,1,552.77,188.52ZM556.65,199v29.15h-3.79V199Z" transform="translate(0.5 0.5)"/><path d="M568.55,188.68v39.5h-3.79v-39.5Z" transform="translate(0.5 0.5)"/><path d="M596.49,201a11.3,11.3,0,0,1,4.25,6.08V188.68h3.73v39.5h-3.73v-8a11.37,11.37,0,0,1-4.25,6.09,12.39,12.39,0,0,1-7.55,2.29,13.82,13.82,0,0,1-7.08-1.81,12.44,12.44,0,0,1-4.86-5.21,19.13,19.13,0,0,1,0-15.9,12.21,12.21,0,0,1,4.84-5.18,13.85,13.85,0,0,1,7.1-1.79A12.4,12.4,0,0,1,596.49,201ZM582,205.09q-3,3.12-3,8.52t3,8.51a10.36,10.36,0,0,0,7.88,3.12,10.94,10.94,0,0,0,5.58-1.44,10.14,10.14,0,0,0,3.89-4.08,13.88,13.88,0,0,0,0-12.23,10.14,10.14,0,0,0-3.89-4.08A10.94,10.94,0,0,0,589.9,202,10.36,10.36,0,0,0,582,205.09Z" transform="translate(0.5 0.5)"/><path d="M612.5,188.52a2.87,2.87,0,0,1,2-.7,2.75,2.75,0,0,1,2,.7,2.4,2.4,0,0,1,.75,1.86,2.36,2.36,0,0,1-.75,1.82,2.79,2.79,0,0,1-2,.69,2.91,2.91,0,0,1-2-.69,2.34,2.34,0,0,1-.77-1.82A2.38,2.38,0,0,1,612.5,188.52ZM616.37,199v29.15h-3.79V199Z" transform="translate(0.5 0.5)"/><path d="M647.31,201.73q3.18,3.22,3.17,9.48v17H646.8V211.47c0-3.17-.8-5.59-2.4-7.28a8.58,8.58,0,0,0-6.57-2.54,9,9,0,0,0-7,2.8q-2.6,2.81-2.59,8.25v15.48h-3.79V199h3.79v7.16a10.15,10.15,0,0,1,4.05-5.72,11.83,11.83,0,0,1,6.73-2A11,11,0,0,1,647.31,201.73Z" transform="translate(0.5 0.5)"/><path d="M678.21,201a11.49,11.49,0,0,1,4.3,6.08v-8h3.69v29.84a14.41,14.41,0,0,1-1.71,7.13,12,12,0,0,1-4.75,4.75,14.14,14.14,0,0,1-6.94,1.68,15.11,15.11,0,0,1-9.37-2.75,12.67,12.67,0,0,1-4.78-7.44h3.73a9.47,9.47,0,0,0,3.56,5.07,11.1,11.1,0,0,0,6.64,1.87,10.64,10.64,0,0,0,5-1.2,8.72,8.72,0,0,0,3.57-3.55,11.29,11.29,0,0,0,1.31-5.56v-8.7a11.56,11.56,0,0,1-4.3,6.09,12.39,12.39,0,0,1-7.55,2.29,13.8,13.8,0,0,1-7.07-1.81,12.38,12.38,0,0,1-4.86-5.21,19.13,19.13,0,0,1,0-15.9,12.25,12.25,0,0,1,4.83-5.18,13.87,13.87,0,0,1,7.1-1.79A12.4,12.4,0,0,1,678.21,201Zm-14.46,4.13c-2,2.08-3,4.92-3,8.52s1,6.43,3,8.51a10.34,10.34,0,0,0,7.87,3.12,10.94,10.94,0,0,0,5.58-1.44,10.09,10.09,0,0,0,3.9-4.08,14,14,0,0,0,0-12.23,10.09,10.09,0,0,0-3.9-4.08,10.94,10.94,0,0,0-5.58-1.44A10.34,10.34,0,0,0,663.75,205.09Z" transform="translate(0.5 0.5)"/><path d="M712,190.55v37.63h-3.79V190.55Z" transform="translate(0.5 0.5)"/><path d="M763.62,201.73q3.12,3.22,3.12,9.48v17H763V211.47q0-4.69-2.27-7.21a8,8,0,0,0-6.22-2.51,8.65,8.65,0,0,0-6.73,2.78c-1.67,1.85-2.51,4.58-2.51,8.17v15.48H741.6V211.47c0-3.13-.75-5.53-2.27-7.21a8,8,0,0,0-6.22-2.51,8.61,8.61,0,0,0-6.72,2.78c-1.68,1.85-2.51,4.58-2.51,8.17v15.48h-3.79V199h3.79V206a9.75,9.75,0,0,1,3.87-5.58,11.32,11.32,0,0,1,6.48-1.89,10.91,10.91,0,0,1,6.62,2,10.51,10.51,0,0,1,3.85,6,10.76,10.76,0,0,1,4.11-6,11.35,11.35,0,0,1,6.67-2.05A10.79,10.79,0,0,1,763.62,201.73Z" transform="translate(0.5 0.5)"/><path d="M794.42,201a11.55,11.55,0,0,1,4.3,6.08v-8h3.68v29.15h-3.68v-8a11.61,11.61,0,0,1-4.3,6.09,12.39,12.39,0,0,1-7.55,2.29,13.87,13.87,0,0,1-7.08-1.81,12.42,12.42,0,0,1-4.85-5.21,19,19,0,0,1,0-15.9,12.18,12.18,0,0,1,4.83-5.18,13.85,13.85,0,0,1,7.1-1.79A12.4,12.4,0,0,1,794.42,201ZM780,205.09q-3,3.12-3,8.52t3,8.51a10.34,10.34,0,0,0,7.87,3.12,10.94,10.94,0,0,0,5.58-1.44,10.14,10.14,0,0,0,3.89-4.08,13.88,13.88,0,0,0,0-12.23,10.14,10.14,0,0,0-3.89-4.08,10.94,10.94,0,0,0-5.58-1.44A10.34,10.34,0,0,0,780,205.09Z" transform="translate(0.5 0.5)"/><path d="M830.35,201a11.53,11.53,0,0,1,4.29,6.08v-8h3.69v29.84a14.41,14.41,0,0,1-1.71,7.13,11.93,11.93,0,0,1-4.75,4.75,14.12,14.12,0,0,1-6.94,1.68,15.13,15.13,0,0,1-9.37-2.75,12.67,12.67,0,0,1-4.78-7.44h3.74a9.4,9.4,0,0,0,3.55,5.07,11.11,11.11,0,0,0,6.65,1.87,10.62,10.62,0,0,0,5-1.2,8.8,8.8,0,0,0,3.58-3.55,11.28,11.28,0,0,0,1.3-5.56v-8.7a11.59,11.59,0,0,1-4.29,6.09,12.4,12.4,0,0,1-7.56,2.29,13.8,13.8,0,0,1-7.07-1.81,12.44,12.44,0,0,1-4.86-5.21,19.13,19.13,0,0,1,0-15.9,12.25,12.25,0,0,1,4.83-5.18,13.9,13.9,0,0,1,7.1-1.79A12.41,12.41,0,0,1,830.35,201Zm-14.47,4.13c-2,2.08-3,4.92-3,8.52s1,6.43,3,8.51a10.36,10.36,0,0,0,7.87,3.12,10.89,10.89,0,0,0,5.58-1.44,10.09,10.09,0,0,0,3.9-4.08,14,14,0,0,0,0-12.23,10.09,10.09,0,0,0-3.9-4.08,10.89,10.89,0,0,0-5.58-1.44A10.36,10.36,0,0,0,815.88,205.09Z" transform="translate(0.5 0.5)"/><path d="M846.36,188.52a2.84,2.84,0,0,1,2-.7,2.77,2.77,0,0,1,2,.7,2.43,2.43,0,0,1,.74,1.86,2.39,2.39,0,0,1-.74,1.82,2.81,2.81,0,0,1-2,.69,2.88,2.88,0,0,1-2-.69,2.31,2.31,0,0,1-.77-1.82A2.35,2.35,0,0,1,846.36,188.52ZM850.23,199v29.15h-3.79V199Z" transform="translate(0.5 0.5)"/><path d="M881.17,201.73q3.17,3.22,3.17,9.48v17h-3.68V211.47c0-3.17-.81-5.59-2.4-7.28a8.6,8.6,0,0,0-6.57-2.54,9,9,0,0,0-7,2.8c-1.72,1.87-2.59,4.62-2.59,8.25v15.48h-3.79V199h3.79v7.16a10.16,10.16,0,0,1,4.06-5.72,11.83,11.83,0,0,1,6.73-2A11.06,11.06,0,0,1,881.17,201.73Z" transform="translate(0.5 0.5)"/><path d="M912.07,201a11.55,11.55,0,0,1,4.3,6.08v-8h3.68v29.15h-3.68v-8a11.61,11.61,0,0,1-4.3,6.09,12.39,12.39,0,0,1-7.55,2.29,13.82,13.82,0,0,1-7.08-1.81,12.44,12.44,0,0,1-4.86-5.21,19.13,19.13,0,0,1,0-15.9,12.21,12.21,0,0,1,4.84-5.18,13.85,13.85,0,0,1,7.1-1.79A12.4,12.4,0,0,1,912.07,201Zm-14.47,4.13q-3,3.12-3,8.52t3,8.51a10.36,10.36,0,0,0,7.88,3.12,10.94,10.94,0,0,0,5.58-1.44,10.14,10.14,0,0,0,3.89-4.08,13.88,13.88,0,0,0,0-12.23,10.14,10.14,0,0,0-3.89-4.08,10.94,10.94,0,0,0-5.58-1.44A10.36,10.36,0,0,0,897.6,205.09Z" transform="translate(0.5 0.5)"/><path d="M941.4,224.87v3.31h-3.47q-4.21,0-6.3-2c-1.38-1.34-2.08-3.59-2.08-6.75V202.29h-4.43V199h4.43v-7.36h3.79V199h8v3.26h-8v17.19c0,2.06.38,3.48,1.12,4.24s2.07,1.15,3.95,1.15Z" transform="translate(0.5 0.5)"/><path d="M947.46,188.52a2.84,2.84,0,0,1,2-.7,2.77,2.77,0,0,1,2,.7,2.43,2.43,0,0,1,.74,1.86,2.39,2.39,0,0,1-.74,1.82,2.81,2.81,0,0,1-2,.69,2.88,2.88,0,0,1-2-.69,2.31,2.31,0,0,1-.77-1.82A2.35,2.35,0,0,1,947.46,188.52ZM951.33,199v29.15h-3.79V199Z" transform="translate(0.5 0.5)"/><path d="M980.07,200.45a12.68,12.68,0,0,1,5.16,5.18,16.34,16.34,0,0,1,1.86,8,16.16,16.16,0,0,1-1.86,7.95,13,13,0,0,1-5.16,5.18,15.1,15.1,0,0,1-7.44,1.81,15.3,15.3,0,0,1-7.48-1.81,13.1,13.1,0,0,1-5.2-5.21,17.67,17.67,0,0,1,0-15.9,12.84,12.84,0,0,1,5.2-5.18,15.4,15.4,0,0,1,7.48-1.79A15.19,15.19,0,0,1,980.07,200.45Zm-12.78,2.75a9.61,9.61,0,0,0-3.95,3.92,13,13,0,0,0-1.49,6.49,12.77,12.77,0,0,0,1.49,6.45,9.62,9.62,0,0,0,3.95,3.9,11.32,11.32,0,0,0,5.34,1.28,11,11,0,0,0,5.26-1.28,9.67,9.67,0,0,0,3.92-3.9,12.77,12.77,0,0,0,1.49-6.45,13,13,0,0,0-1.49-6.49,9.66,9.66,0,0,0-3.92-3.92,11,11,0,0,0-5.26-1.28A11.32,11.32,0,0,0,967.29,203.2Z" transform="translate(0.5 0.5)"/><path d="M1016.64,201.73q3.18,3.22,3.18,9.48v17h-3.68V211.47c0-3.17-.81-5.59-2.41-7.28a8.57,8.57,0,0,0-6.56-2.54,9,9,0,0,0-7,2.8c-1.72,1.87-2.59,4.62-2.59,8.25v15.48h-3.79V199h3.79v7.16a10.16,10.16,0,0,1,4.06-5.72,11.82,11.82,0,0,1,6.72-2A11,11,0,0,1,1016.64,201.73Z" transform="translate(0.5 0.5)"/><rect class="cls-2" x="0.5" y="0.5" width="1106.76" height="356.7"/></svg>