<?xml version="1.0" encoding="utf-8"?>
<!-- Generator: Adobe Illustrator 28.3.0, SVG Export Plug-In . SVG Version: 6.00 Build 0)  -->
<svg version="1.1" id="Layer_1" xmlns="http://www.w3.org/2000/svg" xmlns:xlink="http://www.w3.org/1999/xlink" x="0px" y="0px"
	 viewBox="0 0 682.9 682.9" style="enable-background:new 0 0 682.9 682.9;" xml:space="preserve">
<style type="text/css">
	.st0{fill:#EE1E47;}
	.st1{fill:none;}
</style>
<g>
	<path class="st0" d="M170.7,170.7v341.4h341.4V170.7H170.7z M421.2,351.8c-0.3,0.4-0.9,0.4-1.4,0.1c-58.4-48-94.2-5.3-156.7,69.2
		c-0.4,0.3-1.1,0.3-1.4-0.2c-0.2-0.3-0.3-0.6-0.2-0.9l82.3-142.6c3.8-6.6,6.7-11.6,10.8-14.1c4.2-2.5,9.4-2.5,13.5,0
		s7,7.5,10.8,14.1l42.3,73.3C421.4,351,421.4,351.4,421.2,351.8z"/>
	<rect class="st1" width="682.9" height="682.9"/>
</g>
</svg>
