<?xml version="1.0" encoding="utf-8"?>
<!-- Generator: Adobe Illustrator 28.3.0, SVG Export Plug-In . SVG Version: 6.00 Build 0)  -->
<svg version="1.1" id="Martian-Black" xmlns="http://www.w3.org/2000/svg" xmlns:xlink="http://www.w3.org/1999/xlink" x="0px"
	 y="0px" viewBox="0 0 938.8 357.7" style="enable-background:new 0 0 938.8 357.7;" xml:space="preserve">
<style type="text/css">
	.st0{fill:#EE1E47;}
	.st1{fill:none;stroke:#FFFFFF;stroke-miterlimit:10;stroke-opacity:0;}
</style>
<path d="M344.2,130.9c-0.2-0.6-0.5-1.1-0.9-1.5c-0.5-0.3-1.1-0.5-1.7-0.5h-8.5c-1.2-0.1-2.4,0.7-2.6,1.9l-10.9,35.8h8.6l2.7-9.9
	h13.2l2.7,9.9h8.6L344.2,130.9z M332.6,149.9l3.8-14.1h2l3.8,14.1H332.6z"/>
<path d="M405.9,157.8v-18.5h8.2v27.4h-6.5l-0.7-3.8c-5.9,3.8-18.9,8.2-18.9-5.8v-17.8h8.2v17.8C396.3,161.9,401.1,159.8,405.9,157.8
	"/>
<path d="M436.5,165.6l-1-5.8h-3.4c-0.7,0-1.7,0-2.2-0.7c-0.4-0.8-0.6-1.8-0.5-2.7v-27.4h-2.4l-5.8,10.1v17.4c0,5.1,0,8.2,3.1,9.5
	S433.4,166.7,436.5,165.6"/>
<path d="M382.5,139.2H375c-1.8,10.3-2.7,15.4-3.6,18s-1.7,2.6-3.5,2.6l-6.4-20.6h-7.9l7.8,25.5c0.1,0.6,0.5,1.1,0.9,1.5
	c0.5,0.3,1.1,0.5,1.7,0.5h3.8c4.3,0,7,0,9-3.4S380,153,382.5,139.2"/>
<path d="M479.7,148.1v18.5h-8.2v-27.4h6.2l0.7,4.1c4.1-4.1,8.4-4.1,12.6-4.1l-1.2,6.9C486.4,146.1,482.9,146.8,479.7,148.1"/>
<path d="M444,140.5c-4.8,2.1-4.8,7.3-4.8,12.5s0,10.5,3.4,12.6s10.3,1,14.9-3.8l0.9,4.8h6.2v-26C458.4,139.2,448.8,138.4,444,140.5
	 M456.4,155c-3.4,4.8-6.5,5.5-8,4.3s-1.6-4.1-1.6-7.5s0-7.1,4.8-7.1h4.8L456.4,155z"/>
<path d="M342.5,212.5c1.5,1.7,2.2,3.9,2.2,6.1c0.1,2.8-1,5.5-3.1,7.3c-2.1,1.9-5.1,2.8-9,2.8h-13.1v-37.7h12.9
	c3.8,0,6.6,0.8,8.5,2.5c1.9,1.7,3,4.2,2.9,6.8c0.1,2.1-0.6,4.2-2,5.9c-1.3,1.5-3.1,2.5-5.1,2.9C339,209.6,341,210.8,342.5,212.5z
	 M323.3,207.9h8.6c2.7,0,4.7-0.6,6-1.8c1.4-1.3,2.1-3.1,2-5.1c0.1-1.9-0.6-3.7-2-5c-1.3-1.2-3.4-1.8-6.2-1.8h-8.4L323.3,207.9z
	 M338.5,223.5c3-2.8,3.1-7.4,0.4-10.4c-0.1-0.2-0.3-0.3-0.4-0.4c-1.9-1.4-4.2-2.1-6.6-2h-8.5v14.8h8.6
	C334.3,225.6,336.6,224.9,338.5,223.5z"/>
<path d="M376.2,199.5v29.1h-3.7v-7.1c-0.6,2.3-2.1,4.4-4.1,5.8c-2,1.3-4.3,2-6.7,2c-3.1,0.1-6.1-1-8.3-3.2c-2.1-2.2-3.2-5.3-3.2-9.5
	v-17.1h3.7v16.7c0,3.2,0.8,5.6,2.4,7.3c1.7,1.7,4.1,2.7,6.6,2.5c2.6,0.1,5.2-0.9,7-2.8c1.7-1.8,2.6-4.6,2.6-8.2v-15.5H376.2z"/>
<path d="M384.3,189c0.6-0.5,1.3-0.7,2-0.7c0.7,0,1.5,0.2,2,0.7c0.5,0.5,0.8,1.2,0.8,1.9c0,0.7-0.2,1.4-0.8,1.8
	c-0.5,0.5-1.3,0.7-2,0.7c-0.7,0-1.4-0.2-2-0.7c-0.5-0.5-0.8-1.1-0.8-1.8C383.5,190.2,383.8,189.5,384.3,189z M388.1,199.5v29.1h-3.8
	v-29.1H388.1z"/>
<path d="M400,189.2v39.5h-3.8v-39.5H400z"/>
<path d="M428,201.5c2.1,1.5,3.6,3.6,4.2,6.1v-18.4h3.7v39.5h-3.7v-8c-0.7,2.4-2.2,4.6-4.2,6.1c-2.2,1.6-4.9,2.4-7.5,2.3
	c-2.5,0-4.9-0.6-7.1-1.8c-2.1-1.2-3.8-3-4.9-5.2c-2.3-5-2.3-10.9,0-15.9c1.1-2.2,2.7-4,4.8-5.2c2.2-1.2,4.6-1.8,7.1-1.8
	C423.1,199.1,425.8,199.9,428,201.5z M413.5,205.6c-2,2.1-3,4.9-3,8.5s1,6.4,3,8.5c2.1,2.1,4.9,3.3,7.9,3.1c2,0,3.9-0.5,5.6-1.4
	c1.7-1,3-2.4,3.9-4.1c1.9-3.9,1.9-8.4,0-12.2c-0.9-1.7-2.2-3.1-3.9-4.1c-1.7-1-3.6-1.4-5.6-1.4C418.4,202.4,415.6,203.5,413.5,205.6
	z"/>
<path d="M444,189c0.6-0.5,1.3-0.7,2-0.7c0.7,0,1.5,0.2,2,0.7c0.5,0.5,0.8,1.2,0.8,1.9c0,0.7-0.2,1.4-0.8,1.8c-0.6,0.5-1.3,0.7-2,0.7
	c-0.7,0-1.4-0.2-2-0.7c-0.5-0.5-0.8-1.1-0.8-1.8C443.2,190.2,443.5,189.5,444,189z M447.9,199.5v29.1h-3.8v-29.1H447.9z"/>
<path d="M478.8,202.2c2.1,2.1,3.2,5.3,3.2,9.5v17h-3.7V212c0-3.2-0.8-5.6-2.4-7.3c-1.7-1.7-4.1-2.7-6.6-2.5c-2.6-0.1-5.2,0.9-7,2.8
	c-1.7,1.9-2.6,4.6-2.6,8.2v15.5h-3.8v-29.2h3.8v7.2c0.6-2.3,2.1-4.4,4-5.7c2-1.3,4.3-2,6.7-2C473.6,198.8,476.6,200,478.8,202.2z"/>
<path d="M509.7,201.5c2.1,1.5,3.6,3.6,4.3,6.1v-8h3.7v29.8c0.1,2.5-0.5,4.9-1.7,7.1c-1.1,2-2.7,3.7-4.8,4.8
	c-2.1,1.1-4.5,1.7-6.9,1.7c-3.3,0.1-6.6-0.8-9.4-2.8c-2.4-1.8-4.1-4.5-4.8-7.4h3.7c0.6,2,1.8,3.8,3.6,5.1c2,1.3,4.3,2,6.6,1.9
	c1.8,0,3.5-0.4,5-1.2c1.5-0.8,2.8-2,3.6-3.6c0.9-1.7,1.4-3.6,1.3-5.6v-8.7c-0.7,2.4-2.2,4.6-4.3,6.1c-2.2,1.6-4.9,2.4-7.5,2.3
	c-2.5,0-4.9-0.6-7.1-1.8c-2.1-1.2-3.8-3-4.9-5.2c-2.3-5-2.3-10.9,0-15.9c1.1-2.2,2.7-4,4.8-5.2c2.2-1.2,4.6-1.8,7.1-1.8
	C504.9,199.1,507.5,199.9,509.7,201.5z M495.2,205.6c-2,2.1-3,4.9-3,8.5s1,6.4,3,8.5c2.1,2.1,4.9,3.3,7.9,3.1c2,0,3.9-0.5,5.6-1.4
	c1.7-1,3-2.4,3.9-4.1c1.9-3.9,1.9-8.4,0-12.2c-0.9-1.7-2.2-3.1-3.9-4.1c-1.7-1-3.6-1.5-5.6-1.4C500.2,202.4,497.3,203.5,495.2,205.6
	L495.2,205.6z"/>
<path d="M543.5,191.1v37.6h-3.8v-37.6H543.5z"/>
<path d="M595.1,202.2c2.1,2.1,3.1,5.3,3.1,9.5v17h-3.7V212c0-3.1-0.8-5.5-2.3-7.2c-1.6-1.7-3.9-2.6-6.2-2.5c-2.5-0.1-5,0.9-6.7,2.8
	c-1.7,1.9-2.5,4.6-2.5,8.2v15.5h-3.7V212c0-3.1-0.8-5.5-2.3-7.2c-1.6-1.7-3.9-2.6-6.2-2.5c-2.5-0.1-5,0.9-6.7,2.8
	c-1.7,1.9-2.5,4.6-2.5,8.2v15.5h-3.8v-29.2h3.8v7c0.6-2.3,2-4.2,3.9-5.6c1.9-1.3,4.2-1.9,6.5-1.9c2.4-0.1,4.7,0.6,6.6,2
	c1.9,1.5,3.3,3.6,3.8,6c0.6-2.4,2.1-4.5,4.1-6c2-1.4,4.3-2.1,6.7-2.1C590,198.9,593,200,595.1,202.2z"/>
<path d="M625.9,201.5c2.1,1.5,3.6,3.6,4.3,6.1v-8h3.7v29.1h-3.7v-8c-0.7,2.4-2.2,4.6-4.3,6.1c-2.2,1.6-4.9,2.4-7.5,2.3
	c-2.5,0-4.9-0.6-7.1-1.8c-2.1-1.2-3.8-3-4.8-5.2c-2.3-5-2.3-10.9,0-15.9c1.1-2.2,2.7-4,4.8-5.2c2.2-1.2,4.6-1.8,7.1-1.8
	C621.1,199.1,623.7,199.9,625.9,201.5z M611.5,205.6c-2,2.1-3,4.9-3,8.5s1,6.4,3,8.5c2.1,2.1,4.9,3.3,7.9,3.1c2,0,3.9-0.5,5.6-1.4
	c1.7-1,3-2.4,3.9-4.1c1.9-3.9,1.9-8.4,0-12.2c-0.9-1.7-2.2-3.1-3.9-4.1c-1.7-1-3.6-1.5-5.6-1.4C616.4,202.3,613.6,203.5,611.5,205.6
	z"/>
<path d="M661.8,201.5c2.1,1.5,3.6,3.6,4.3,6.1v-8h3.7v29.8c0.1,2.5-0.5,4.9-1.7,7.1c-1.1,2-2.7,3.7-4.8,4.8
	c-2.1,1.1-4.5,1.7-6.9,1.7c-3.3,0.1-6.6-0.8-9.4-2.8c-2.4-1.8-4.1-4.5-4.8-7.4h3.7c0.6,2,1.8,3.8,3.5,5.1c2,1.3,4.3,2,6.7,1.9
	c1.7,0,3.5-0.4,5-1.2c1.5-0.8,2.8-2,3.6-3.6c0.9-1.7,1.4-3.6,1.3-5.6v-8.7c-0.7,2.4-2.2,4.6-4.3,6.1c-2.2,1.6-4.9,2.4-7.6,2.3
	c-2.5,0-4.9-0.6-7.1-1.8c-2.1-1.2-3.8-3-4.9-5.2c-2.3-5-2.3-10.9,0-15.9c1.1-2.2,2.7-4,4.8-5.2c2.2-1.2,4.6-1.8,7.1-1.8
	C657,199.1,659.6,199.9,661.8,201.5z M647.4,205.6c-2,2.1-3,4.9-3,8.5s1,6.4,3,8.5c2.1,2.1,4.9,3.2,7.9,3.1c2,0,3.9-0.5,5.6-1.4
	c1.7-1,3-2.4,3.9-4.1c1.9-3.9,1.9-8.4,0-12.2c-0.9-1.7-2.2-3.1-3.9-4.1c-1.7-1-3.6-1.5-5.6-1.4C652.3,202.4,649.4,203.5,647.4,205.6
	L647.4,205.6z"/>
<path d="M677.9,189c0.6-0.5,1.3-0.7,2-0.7c0.7,0,1.5,0.2,2,0.7c0.5,0.5,0.8,1.2,0.7,1.9c0,0.7-0.2,1.3-0.7,1.8
	c-0.6,0.5-1.3,0.7-2,0.7c-0.7,0-1.4-0.2-2-0.7c-0.5-0.5-0.8-1.1-0.8-1.8C677.1,190.2,677.3,189.5,677.9,189z M681.7,199.5v29.1h-3.8
	v-29.1H681.7z"/>
<path d="M712.7,202.2c2.1,2.1,3.2,5.3,3.2,9.5v17h-3.7V212c0-3.2-0.8-5.6-2.4-7.3c-1.7-1.7-4.1-2.7-6.6-2.5c-2.6-0.1-5.2,0.9-7,2.8
	c-1.7,1.9-2.6,4.6-2.6,8.2v15.5h-3.8v-29.2h3.8v7.2c0.6-2.3,2.1-4.4,4.1-5.7c2-1.3,4.3-2,6.7-2C707.5,198.8,710.5,200,712.7,202.2z"
	/>
<path d="M743.6,201.5c2.1,1.5,3.6,3.6,4.3,6.1v-8h3.7v29.1h-3.7v-8c-0.7,2.4-2.2,4.6-4.3,6.1c-2.2,1.6-4.9,2.4-7.5,2.3
	c-2.5,0-4.9-0.6-7.1-1.8c-2.1-1.2-3.8-3-4.9-5.2c-2.3-5-2.3-10.9,0-15.9c1.1-2.2,2.7-4,4.8-5.2c2.2-1.2,4.6-1.8,7.1-1.8
	C738.7,199.1,741.4,199.9,743.6,201.5z M729.1,205.6c-2,2.1-3,4.9-3,8.5s1,6.4,3,8.5c2.1,2.1,4.9,3.3,7.9,3.1c2,0,3.9-0.5,5.6-1.4
	c1.7-1,3-2.4,3.9-4.1c1.9-3.9,1.9-8.4,0-12.2c-0.9-1.7-2.2-3.1-3.9-4.1c-1.7-1-3.6-1.5-5.6-1.4C734,202.4,731.2,203.5,729.1,205.6
	L729.1,205.6z"/>
<path d="M772.9,225.4v3.3h-3.5c-2.8,0-4.9-0.7-6.3-2c-1.4-1.3-2.1-3.6-2.1-6.8v-17.1h-4.4v-3.3h4.4v-7.4h3.8v7.4h8v3.3h-8v17.2
	c0,2.1,0.4,3.5,1.1,4.2s2.1,1.1,4,1.1L772.9,225.4z"/>
<path d="M779,189c0.6-0.5,1.3-0.7,2-0.7c0.7,0,1.5,0.2,2,0.7c0.5,0.5,0.8,1.2,0.7,1.9c0,0.7-0.2,1.3-0.7,1.8c-0.6,0.5-1.3,0.7-2,0.7
	c-0.7,0-1.4-0.2-2-0.7c-0.5-0.5-0.8-1.1-0.8-1.8C778.2,190.2,778.4,189.5,779,189z M782.8,199.5v29.1H779v-29.1H782.8z"/>
<path d="M811.6,200.9c2.2,1.2,4,3,5.2,5.2c1.3,2.5,1.9,5.2,1.9,8c0.1,2.8-0.6,5.5-1.9,7.9c-1.2,2.2-3,4-5.2,5.2
	c-2.3,1.2-4.8,1.9-7.4,1.8c-2.6,0-5.2-0.6-7.5-1.8c-2.2-1.2-4-3-5.2-5.2c-2.5-5-2.5-10.9,0-15.9c1.2-2.2,3-4,5.2-5.2
	c2.3-1.2,4.9-1.8,7.5-1.8C806.7,199.1,809.3,199.7,811.6,200.9z M798.8,203.7c-1.7,0.9-3,2.3-4,3.9c-1.1,2-1.6,4.2-1.5,6.5
	c-0.1,2.2,0.4,4.5,1.5,6.4c0.9,1.7,2.3,3,4,3.9c1.6,0.9,3.5,1.3,5.3,1.3c1.8,0,3.6-0.4,5.3-1.3c1.7-0.9,3-2.2,3.9-3.9
	c1.1-2,1.6-4.2,1.5-6.4c0.1-2.3-0.4-4.5-1.5-6.5c-0.9-1.7-2.3-3-3.9-3.9c-1.6-0.9-3.4-1.3-5.3-1.3
	C802.3,202.4,800.4,202.8,798.8,203.7z"/>
<path d="M848.1,202.2c2.1,2.1,3.2,5.3,3.2,9.5v17h-3.7V212c0-3.2-0.8-5.6-2.4-7.3c-1.7-1.7-4.1-2.7-6.6-2.5c-2.6-0.1-5.2,0.9-7,2.8
	c-1.7,1.9-2.6,4.6-2.6,8.2v15.5h-3.8v-29.2h3.8v7.2c0.6-2.3,2.1-4.4,4.1-5.7c2-1.3,4.3-2,6.7-2C843,198.8,846,200,848.1,202.2z"/>
<path class="st0" d="M87.5,87.2v183.3h183.3V87.2H87.5z M222,184.4c-0.2,0.2-0.5,0.3-0.7,0.1c0,0,0,0,0,0
	c-31.4-25.8-50.6-2.9-84.2,37.1c-0.2,0.2-0.5,0.3-0.7,0.1s-0.3-0.5-0.1-0.7l0,0l44.1-76.5c2.1-3.6,3.6-6.2,5.8-7.6
	c2.2-1.3,5-1.3,7.2,0c2.2,1.3,3.8,4,5.8,7.6l22.7,39.4C222.1,184,222.1,184.3,222,184.4L222,184.4z"/>
<rect x="0.5" y="0.5" class="st1" width="937.8" height="356.7"/>
</svg>
